<?xml version="1.0" encoding="utf-8"?>
<!-- Generator: Adobe Illustrator 18.1.1, SVG Export Plug-In . SVG Version: 6.00 Build 0)  -->
<svg version="1.1" id="Capa_1" xmlns="http://www.w3.org/2000/svg" xmlns:xlink="http://www.w3.org/1999/xlink" x="0px" y="0px"
	 viewBox="0 187.3 512 137.8" enable-background="new 0 187.3 512 137.8" xml:space="preserve">
<g>
	<path fill="#274470" d="M69,325c-0.1,0-0.1,0-0.2,0c13.9-0.1,29.9-10.2,29.9-22.5c0-27.8-62.4-14.7-62.4-44.1
		c0-0.8,0.1-1.5,0.2-2.3c3.8,0,7.7-2.9,9-6.6c-1.3-0.9-20.3-12.7-20.3-36.9c0-4.1,0.5-7.7,1.4-11C10.4,214.3,0,233.9,0,256
		c0,18.8,7.6,35.9,19.8,48.3l0,0c0-0.4-0.1-0.9-0.1-1.3c0-12.1,10.3-19.8,17.2-19.8c5.9,0,8.6,4.6,9.2,6.2c0,0,0,0,0.1,0
		c-4.6,2.6-7.7,7.5-7.7,13.2c0,12.5,16.3,22.1,29.4,22.5C68.2,325,68.6,325,69,325L69,325L69,325z"/>
	<path fill="#274470" d="M43.1,212.7c0,11.7,9.5,25.6,23.7,25.6c9.1,0,13.8-2.1,18.2-5.7c3.3,2.2,5.4,5.9,5.4,10.2
		c0,7.4-5.6,13.7-21.7,13.7c-5.2,0-9.1-0.9-11.3-1.5c-0.1,0.4-0.2,0.8-0.2,1.2c0,11.3,59.6,2.9,59.6,44.7c0,1.8-0.1,3.6-0.4,5.4l0,0
		c13.2-12.6,21.5-30.4,21.5-50.1c0-26.3-14.8-49.2-36.4-60.8c0,0.4,0.1,0.9,0.1,1.4c0,8-6.7,14.9-13.3,14.9c-4.9,0-7.8-3.2-9-5.7
		c2.8-1.3,4.7-4.1,4.7-7.4c0-6.2-7.7-11.3-15.1-11.3C54.1,187,43.1,199.1,43.1,212.7z"/>
	<g>
		<path fill="#274470" d="M188.3,236.7h-4l-0.5-2.9c-1.6,1.5-4.6,3.5-8.7,3.5c-6.6,0-9.3-4.8-9.3-15.6c0-11.9,3.4-15.4,13.1-15.4
			c3,0,5.9,0.3,8.6,1l-0.4,4c-2.8-0.2-5.8-0.3-7.9-0.3c-5.7,0-7.7,1.2-7.7,10.9c0,8,1.3,10.6,5.4,10.6c2.5,0,4.5-1,6.3-2.1v-11h5.3
			v17.3H188.3z"/>
		<path fill="#274470" d="M222.1,221.8c0,11.9-3.2,15.5-12.3,15.5s-12.3-3.6-12.3-15.5s3.2-15.5,12.3-15.5
			C218.9,206.3,222.1,209.9,222.1,221.8z M203.2,221.8c0,8.3,1.6,10.9,6.6,10.9c5.1,0,6.6-2.6,6.6-10.9c0-8.3-1.6-10.9-6.6-10.9
			C204.8,210.9,203.2,213.5,203.2,221.8z"/>
		<path fill="#274470" d="M246.5,235.2c-0.3,0.9-1,1.5-2,1.5h-5.1c-1,0-1.7-0.6-1.9-1.5l-8.5-28.3h5.6l6.1,22.4
			c0.3,1.1,0.5,2.3,0.8,3.3h1.1c0.2-1.1,0.5-2.2,0.8-3.3l6-22.4h5.6L246.5,235.2z"/>
		<path fill="#274470" d="M282.3,236.4c-3.9,0.3-8.8,0.3-13.2,0.3c-3.9,0-6.4-2.2-6.4-5.7v-18.7c0-3.5,2.5-5.7,6.4-5.7
			c4.4,0,9.2,0,13.2,0.3l-0.3,4.2h-11.7c-1.6,0-2.2,0.6-2.2,2.5v5.2h12.2v4.2h-12.2v6.7c0,1.9,0.6,2.5,2.2,2.5H282L282.3,236.4z"/>
		<path fill="#274470" d="M308.5,236.7l-2.4-9.3c-0.6-1.9-1.6-2.7-3.5-2.7h-5.4v12h-5.4v-29.9c3.4-0.3,5.8-0.4,10.9-0.4
			c7.4,0,10.4,1.9,10.4,8.7c0,4.5-1.5,7-5.6,7.5v0.2c1.5,0.3,3.3,1.6,4,4.4l2.7,9.3h-5.7V236.7z M302.7,220.3c3.8,0,5-1.1,5-4.8
			s-1.2-4.6-5-4.6h-5.4v9.4L302.7,220.3L302.7,220.3z"/>
		<path fill="#274470" d="M347.8,234.7c0,1.3-0.7,2-2,2h-4.3c-1.2,0-1.8-0.5-2.2-1.6l-8.4-18.3c-0.6-1.2-1.5-3.1-1.8-4.5h-0.5
			c0.2,1.5,0.3,3,0.3,4.5v19.9h-5.3v-27.9c0-1.3,0.7-2,2-2h4.2c1.2,0,1.7,0.5,2.2,1.6l8.1,17.8c0.6,1.3,1.4,3.1,2.1,4.7h0.5
			c-0.1-1.6-0.2-3.2-0.2-4.8v-19.3h5.3L347.8,234.7L347.8,234.7z"/>
		<path fill="#274470" d="M363.6,228.3l-2.5,8.4h-5.5l9-28.4c0.3-0.9,1-1.4,1.9-1.4h5.3c0.9,0,1.7,0.5,1.9,1.4l9,28.4h-5.5l-2.5-8.4
			H363.6z M370.4,213.5c-0.2-0.8-0.5-1.7-0.6-2.6h-1.2l-0.7,2.6l-3,10.3h8.5L370.4,213.5z"/>
		<path fill="#274470" d="M414.9,234.7c0,1.3-0.7,2-2,2h-4.3c-1.2,0-1.8-0.5-2.2-1.6l-8.4-18.3c-0.6-1.2-1.5-3.1-1.8-4.5h-0.5
			c0.2,1.5,0.3,3,0.3,4.5v19.9h-5.3v-27.9c0-1.3,0.7-2,2-2h4.2c1.2,0,1.7,0.5,2.2,1.6l8.1,17.8c0.6,1.3,1.4,3.1,2.1,4.7h0.5
			c-0.1-1.6-0.2-3.2-0.2-4.8v-19.3h5.3L414.9,234.7L414.9,234.7z"/>
		<path fill="#274470" d="M446.2,236.1c-2.6,0.8-5.1,1.1-9.2,1.1c-9,0-12.2-4.1-12.2-15.4c0-11.4,3.2-15.4,12.2-15.4
			c4,0,6,0.3,8.6,1l-0.5,4.1c-2.7-0.2-4.5-0.3-8-0.3c-4.9,0-6.4,2.5-6.4,10.7s1.5,10.7,6.4,10.7c3.8,0,6.1-0.1,8.7-0.4L446.2,236.1z
			"/>
		<path fill="#274470" d="M474.5,236.4c-3.9,0.3-8.8,0.3-13.2,0.3c-3.9,0-6.4-2.2-6.4-5.7v-18.7c0-3.5,2.5-5.7,6.4-5.7
			c4.4,0,9.2,0,13.2,0.3l-0.3,4.2h-11.7c-1.6,0-2.2,0.6-2.2,2.5v5.2h12.2v4.2h-12.2v6.7c0,1.9,0.6,2.5,2.2,2.5h11.7L474.5,236.4z"/>
	</g>
	<g>
		<path fill="#274470" d="M205.5,287.2c-2.6,0.8-5.1,1.1-9.2,1.1c-9,0-12.2-4.1-12.2-15.4c0-11.4,3.2-15.4,12.2-15.4
			c4,0,6,0.3,8.6,1l-0.5,4.1c-2.7-0.2-4.5-0.3-8-0.3c-4.9,0-6.4,2.5-6.4,10.7s1.5,10.7,6.4,10.7c3.8,0,6.1-0.1,8.7-0.4L205.5,287.2z
			"/>
		<path fill="#274470" d="M237.7,272.9c0,11.9-3.2,15.5-12.3,15.5s-12.3-3.6-12.3-15.5s3.2-15.5,12.3-15.5S237.7,261,237.7,272.9z
			 M218.8,272.9c0,8.3,1.6,10.9,6.6,10.9c5.1,0,6.6-2.6,6.6-10.9s-1.6-10.9-6.6-10.9C220.4,262,218.8,264.6,218.8,272.9z"/>
		<path fill="#274470" d="M272,285.8c0,1.3-0.7,2-2,2h-4.3c-1.2,0-1.8-0.5-2.2-1.6l-8.4-18.3c-0.6-1.2-1.5-3.1-1.8-4.5h-0.5
			c0.2,1.5,0.3,3,0.3,4.5v19.9h-5.3V260c0-1.3,0.7-2,2-2h4.2c1.2,0,1.7,0.5,2.3,1.6l8.1,17.8c0.6,1.3,1.4,3.1,2.1,4.7h0.5
			c-0.1-1.6-0.2-3.2-0.2-4.8V258h5.3L272,285.8L272,285.8z"/>
		<path fill="#274470" d="M287.7,274.1c-4.4-1.4-6-4.2-6-8.7c0-6.8,3.1-8,10.3-8c2.9,0,6.2,0.2,9.4,1l-0.3,3.9
			c-2.5-0.1-5.9-0.2-8.9-0.2c-3.6,0-5,0.2-5,3.4c0,2.6,1,3.2,3.3,4l5.8,1.8c4.7,1.5,6.1,4.3,6.1,8.7c0,6.8-2.9,8.4-10.6,8.4
			c-1.8,0-5.4-0.1-9.7-1l0.3-4c5.7,0.1,7.4,0.2,9.5,0.2c3.9,0,5-0.6,5-3.6c0-2.7-1-3.2-3.2-3.9L287.7,274.1z"/>
		<path fill="#274470" d="M334.5,276.2c0,8.9-3,12.2-11.2,12.2c-8.5,0-11.6-3.3-11.6-12.2V258h5.4v18.2c0,5.8,1.5,7.6,6,7.6
			c4.4,0,5.9-1.9,5.9-7.6V258h5.5L334.5,276.2L334.5,276.2z"/>
		<path fill="#274470" d="M350.6,280.9c0,1.8,0.6,2.5,2.6,2.5h10.4l0.2,4.2c-3.8,0.3-7.8,0.4-11.9,0.4c-5,0-6.7-2.6-6.7-6.2V258h5.4
			V280.9z"/>
		<path fill="#274470" d="M380.2,262.6v25.2h-5.5v-25.2h-9.1V258h23.8v4.6H380.2z"/>
		<path fill="#274470" d="M400.4,279.4l-2.5,8.4h-5.5l9-28.4c0.3-0.9,1-1.4,1.9-1.4h5.3c0.9,0,1.7,0.5,1.9,1.4l9,28.4H414l-2.5-8.4
			H400.4z M407.2,264.6c-0.2-0.8-0.5-1.7-0.6-2.6h-1.2l-0.7,2.6l-3,10.3h8.5L407.2,264.6z"/>
		<path fill="#274470" d="M451.6,285.8c0,1.3-0.7,2-2,2h-4.3c-1.2,0-1.8-0.5-2.2-1.6l-8.4-18.3c-0.6-1.2-1.5-3.1-1.8-4.5h-0.5
			c0.2,1.5,0.3,3,0.3,4.5v19.9h-5.3V260c0-1.3,0.7-2,2-2h4.2c1.2,0,1.7,0.5,2.3,1.6l8.1,17.8c0.6,1.3,1.4,3.1,2.1,4.7h0.5
			c-0.1-1.6-0.2-3.2-0.2-4.8V258h5.3v27.8H451.6z"/>
		<path fill="#274470" d="M474.8,262.6v25.2h-5.5v-25.2h-9.1V258H484v4.6H474.8z"/>
		<path fill="#274470" d="M497.3,274.1c-4.4-1.4-6-4.2-6-8.7c0-6.8,3.1-8,10.3-8c2.9,0,6.2,0.2,9.4,1l-0.3,3.9
			c-2.5-0.1-5.9-0.2-8.9-0.2c-3.6,0-5,0.2-5,3.4c0,2.6,1,3.2,3.3,4l5.8,1.8c4.7,1.5,6.1,4.3,6.1,8.7c0,6.8-2.9,8.4-10.6,8.4
			c-1.8,0-5.4-0.1-9.7-1l0.3-4c5.7,0.1,7.4,0.2,9.5,0.2c3.9,0,5-0.6,5-3.6c0-2.7-1-3.2-3.2-3.9L497.3,274.1z"/>
	</g>
</g>
</svg>
