<?xml version="1.0" encoding="utf-8"?>
<!-- Generator: Adobe Illustrator 18.1.1, SVG Export Plug-In . SVG Version: 6.00 Build 0)  -->
<svg version="1.1" id="Capa_1" xmlns="http://www.w3.org/2000/svg" xmlns:xlink="http://www.w3.org/1999/xlink" x="0px" y="0px"
	 viewBox="0 120.8 512 270.3" enable-background="new 0 120.8 512 270.3" xml:space="preserve">
<g>
	<g>
		<path fill="#FFFFFF" d="M256,294.9c-0.1,0-0.2,0-0.2,0c17.6-0.1,37.7-12.9,37.7-28.3c0-35.1-78.7-18.5-78.7-55.6
			c0-1,0.1-1.9,0.2-2.9c4.8,0,9.7-3.7,11.3-8.3c-1.7-1.1-25.6-16-25.6-46.5c0-5.2,0.7-9.7,1.8-13.9c-20.3,15.9-33.4,40.7-33.4,68.5
			c0,23.7,9.5,45.2,24.9,60.9l0,0c0-0.6-0.1-1.1-0.1-1.7c0-15.2,13-25,21.7-25c7.4,0,10.8,5.7,11.7,7.8h0.1
			c-5.8,3.3-9.7,9.5-9.7,16.6c0,15.8,20.6,27.9,37,28.3C255.1,294.9,255.5,294.9,256,294.9L256,294.9L256,294.9z"/>
		<path fill="#FFFFFF" d="M223.4,153.2c0,14.7,11.9,32.2,29.8,32.2c11.5,0,17.4-2.6,23-7.2c4.1,2.8,6.8,7.5,6.8,12.8
			c0,9.3-7.1,17.2-27.3,17.2c-6.5,0-11.5-1.1-14.3-1.9c-0.2,0.5-0.2,1-0.2,1.5c0,14.3,75.2,3.6,75.2,56.3c0,2.3-0.1,4.6-0.5,6.8l0,0
			c16.7-15.8,27.1-38.3,27.1-63.1c0-33.2-18.6-62-45.9-76.7c0.1,0.6,0.1,1.1,0.1,1.7c0,10.1-8.4,18.8-16.7,18.8
			c-6.2,0-9.9-4.1-11.4-7.2c3.5-1.6,6-5.2,6-9.3c0-7.8-9.7-14.3-19-14.3C237.3,120.9,223.4,136.2,223.4,153.2z"/>
	</g>
	<g>
		<path fill="#FFFFFF" d="M17.5,355.8h-3.1l-0.4-2.3c-1.2,1.2-3.6,2.7-6.8,2.7c-5.1,0-7.3-3.8-7.3-12.1c0-9.3,2.7-11.9,10.2-11.9
			c2.3,0,4.6,0.2,6.7,0.8l-0.3,3.1c-2.2-0.1-4.5-0.2-6.1-0.2c-4.4,0-6,0.9-6,8.5c0,6.2,1,8.3,4.2,8.3c1.9,0,3.5-0.7,4.9-1.6v-8.6
			h4.1v13.3H17.5z"/>
		<path fill="#FFFFFF" d="M43.8,344.2c0,9.2-2.5,12-9.6,12s-9.5-2.8-9.5-12s2.5-12,9.5-12C41.3,332.2,43.8,335,43.8,344.2z
			 M29.1,344.2c0,6.5,1.2,8.4,5.1,8.4s5.1-2,5.1-8.4s-1.2-8.4-5.1-8.4C30.3,335.8,29.1,337.7,29.1,344.2z"/>
		<path fill="#FFFFFF" d="M62.7,354.6c-0.2,0.7-0.8,1.2-1.5,1.2h-4c-0.7,0-1.3-0.5-1.5-1.2l-6.6-22h4.3l4.7,17.4
			c0.2,0.8,0.4,1.7,0.6,2.6h0.8c0.2-0.8,0.4-1.7,0.6-2.6l4.7-17.4h4.3L62.7,354.6z"/>
		<path fill="#FFFFFF" d="M90.6,355.6c-3.1,0.3-6.8,0.3-10.2,0.3c-3.1,0-4.9-1.7-5-4.4V337c0-2.7,2-4.4,5-4.4c3.4,0,7.2,0,10.2,0.3
			l-0.2,3.2h-9.1c-1.2,0-1.7,0.5-1.7,2v4.1h9.5v3.2h-9.5v5.2c0,1.4,0.5,1.9,1.7,1.9h9.1L90.6,355.6z"/>
		<path fill="#FFFFFF" d="M110.9,355.8l-1.8-7.2c-0.5-1.5-1.3-2.1-2.7-2.1h-4.2v9.3H98v-23.2c2.7-0.3,4.5-0.3,8.4-0.3
			c5.7,0,8.1,1.5,8.1,6.8c0,3.5-1.1,5.4-4.3,5.8v0.2c1.1,0.3,2.6,1.2,3.1,3.4l2.1,7.3L110.9,355.8L110.9,355.8z M106.4,343.1
			c3,0,3.9-0.8,3.9-3.7c0-2.9-0.9-3.6-3.9-3.6h-4.2v7.3L106.4,343.1L106.4,343.1z"/>
		<path fill="#FFFFFF" d="M141.4,354.2c0,1-0.5,1.5-1.5,1.5h-3.3c-0.9,0-1.4-0.4-1.7-1.3l-6.5-14.2c-0.4-0.9-1.1-2.4-1.4-3.5h-0.4
			c0.2,1.2,0.2,2.4,0.2,3.5v15.5h-4.1V334c0-1,0.6-1.5,1.6-1.5h3.3c0.9,0,1.3,0.4,1.7,1.3l6.3,13.8c0.4,1,1.1,2.4,1.6,3.7h0.4
			c-0.1-1.3-0.2-2.5-0.2-3.8v-15h4.1v21.7H141.4z"/>
		<path fill="#FFFFFF" d="M153.8,349.2l-1.9,6.6h-4.3l7-22.1c0.2-0.7,0.8-1.1,1.5-1.1h4.1c0.7,0,1.3,0.4,1.5,1.1l7,22.1h-4.3
			l-1.9-6.6H153.8z M159,337.8c-0.2-0.6-0.4-1.3-0.5-2h-0.9l-0.5,2l-2.3,8h6.6L159,337.8z"/>
		<path fill="#FFFFFF" d="M193.6,354.2c0,1-0.5,1.5-1.5,1.5h-3.3c-0.9,0-1.4-0.4-1.7-1.3l-6.5-14.2c-0.4-0.9-1.1-2.4-1.4-3.5h-0.4
			c0.2,1.2,0.2,2.4,0.2,3.5v15.5h-4.1V334c0-1,0.6-1.5,1.6-1.5h3.3c0.9,0,1.3,0.4,1.7,1.3l6.3,13.8c0.4,1,1.1,2.4,1.6,3.7h0.4
			c-0.1-1.3-0.2-2.5-0.2-3.8v-15h4.1v21.7H193.6z"/>
		<path fill="#FFFFFF" d="M217.9,355.3c-2.1,0.6-3.9,0.9-7.1,0.9c-7,0-9.4-3.2-9.4-12s2.5-12,9.4-12c3.1,0,4.6,0.2,6.7,0.7l-0.4,3.2
			c-2.1-0.2-3.5-0.2-6.3-0.2c-3.8,0-5,2-5,8.3c0,6.4,1.2,8.3,5,8.3c3,0,4.8-0.1,6.8-0.3L217.9,355.3z"/>
		<path fill="#FFFFFF" d="M239.9,355.6c-3.1,0.3-6.8,0.3-10.2,0.3c-3.1,0-4.9-1.7-5-4.4V337c0-2.7,2-4.4,5-4.4c3.4,0,7.2,0,10.2,0.3
			l-0.2,3.2h-9.1c-1.2,0-1.7,0.5-1.7,2v4.1h9.5v3.2h-9.5v5.2c0,1.4,0.5,1.9,1.7,1.9h9.1L239.9,355.6z"/>
		<path fill="#FFFFFF" d="M273.9,355.3c-2.1,0.6-3.9,0.9-7.1,0.9c-7,0-9.4-3.2-9.4-12s2.5-12,9.4-12c3.1,0,4.6,0.2,6.7,0.7l-0.4,3.2
			c-2.1-0.2-3.5-0.2-6.3-0.2c-3.8,0-5,2-5,8.3c0,6.4,1.2,8.3,5,8.3c3,0,4.8-0.1,6.8-0.3L273.9,355.3z"/>
		<path fill="#FFFFFF" d="M298.9,344.2c0,9.2-2.5,12-9.6,12s-9.5-2.8-9.5-12s2.5-12,9.5-12C296.4,332.2,298.9,335,298.9,344.2z
			 M284.2,344.2c0,6.5,1.2,8.4,5.1,8.4s5.1-2,5.1-8.4s-1.2-8.4-5.1-8.4C285.4,335.8,284.2,337.7,284.2,344.2z"/>
		<path fill="#FFFFFF" d="M325.5,354.2c0,1-0.5,1.5-1.5,1.5h-3.3c-0.9,0-1.4-0.4-1.7-1.3l-6.5-14.2c-0.4-0.9-1.1-2.4-1.4-3.5h-0.4
			c0.2,1.2,0.2,2.4,0.2,3.5v15.5h-4.1V334c0-1,0.6-1.5,1.6-1.5h3.3c0.9,0,1.3,0.4,1.7,1.3l6.3,13.8c0.4,1,1.1,2.4,1.6,3.7h0.4
			c-0.1-1.3-0.2-2.5-0.2-3.8v-15h4.1v21.7H325.5z"/>
		<path fill="#FFFFFF" d="M337.7,345.1c-3.4-1.1-4.7-3.3-4.7-6.7c0-5.3,2.4-6.2,8-6.2c2.2,0,4.8,0.1,7.3,0.8l-0.3,3
			c-1.9-0.1-4.6-0.1-6.9-0.1c-2.8,0-3.9,0.2-3.9,2.7c0,2.1,0.8,2.5,2.6,3.1l4.5,1.4c3.7,1.2,4.8,3.4,4.8,6.8c0,5.3-2.3,6.5-8.2,6.5
			c-1.4,0-4.2-0.1-7.5-0.7l0.3-3.1c4.4,0.1,5.7,0.1,7.4,0.1c3,0,3.9-0.4,3.9-2.8c0-2.1-0.8-2.5-2.5-3.1L337.7,345.1z"/>
		<path fill="#FFFFFF" d="M374.1,346.7c0,6.9-2.3,9.5-8.7,9.5c-6.6,0-9-2.6-9-9.5v-14.1h4.2v14.1c0,4.5,1.2,5.9,4.7,5.9
			c3.4,0,4.6-1.4,4.6-5.9v-14.1h4.2L374.1,346.7L374.1,346.7z"/>
		<path fill="#FFFFFF" d="M386.6,350.4c0,1.4,0.5,1.9,2,1.9h8.1l0.2,3.3c-2.9,0.3-6.1,0.3-9.2,0.3c-3.9,0-5.2-2-5.2-4.8v-18.5h4.2
			v17.8H386.6z"/>
		<path fill="#FFFFFF" d="M409.6,336.2v19.6h-4.2v-19.6h-7.1v-3.6h18.5v3.6H409.6z"/>
		<path fill="#FFFFFF" d="M425.3,349.2l-1.9,6.6h-4.3l7-22.1c0.2-0.7,0.8-1.1,1.5-1.1h4.1c0.7,0,1.3,0.4,1.5,1.1l7,22.1h-4.3
			l-1.9-6.6H425.3z M430.6,337.8c-0.2-0.6-0.4-1.3-0.5-2h-0.9l-0.5,2l-2.3,8h6.6L430.6,337.8z"/>
		<path fill="#FFFFFF" d="M465.1,354.2c0,1-0.5,1.5-1.5,1.5h-3.3c-0.9,0-1.4-0.4-1.7-1.3l-6.5-14.2c-0.4-0.9-1.1-2.4-1.4-3.5h-0.4
			c0.2,1.2,0.2,2.4,0.2,3.5v15.5h-4.1V334c0-1,0.6-1.5,1.6-1.5h3.3c0.9,0,1.3,0.4,1.7,1.3l6.3,13.8c0.4,1,1.1,2.4,1.6,3.7h0.4
			c-0.1-1.3-0.2-2.5-0.2-3.8v-15h4.1v21.7H465.1z"/>
		<path fill="#FFFFFF" d="M483.1,336.2v19.6h-4.2v-19.6h-7.1v-3.6h18.5v3.6H483.1z"/>
		<path fill="#FFFFFF" d="M500.6,345.1c-3.4-1.1-4.7-3.3-4.7-6.7c0-5.3,2.4-6.2,8-6.2c2.2,0,4.8,0.1,7.3,0.8l-0.3,3
			c-1.9-0.1-4.6-0.1-6.9-0.1c-2.8,0-3.9,0.2-3.9,2.7c0,2.1,0.8,2.5,2.6,3.1l4.5,1.4c3.7,1.2,4.8,3.4,4.8,6.8c0,5.3-2.3,6.5-8.2,6.5
			c-1.4,0-4.2-0.1-7.5-0.7l0.3-3.1c4.4,0.1,5.7,0.1,7.4,0.1c3,0,3.9-0.4,3.9-2.8c0-2.1-0.8-2.5-2.5-3.1L500.6,345.1z"/>
	</g>
	<g>
		<path fill="#FFFFFF" d="M104.2,380.6c0.3,0,0.5,0.2,0.5,0.6l0.4,9.8h-1.3l-0.4-9.2h-0.3l-2.3,7.6c-0.1,0.3-0.3,0.4-0.6,0.4H99
			c-0.3,0-0.5-0.2-0.6-0.4l-2.3-7.6h-0.3l-0.4,9.2h-1.3l0.4-9.8c0-0.4,0.2-0.6,0.6-0.6h1.5c0.3,0,0.5,0.1,0.6,0.4l1.9,6.3
			c0.1,0.5,0.3,0.9,0.4,1.4h0.3c0.1-0.5,0.2-0.9,0.4-1.4l1.9-6.3c0.1-0.3,0.3-0.4,0.6-0.4H104.2z"/>
		<path fill="#FFFFFF" d="M122.3,387.6l-1,3.2h-1.4l3.3-10c0.1-0.2,0.3-0.4,0.5-0.4h1.4c0.2,0,0.4,0.1,0.5,0.4l3.3,10h-1.4l-1-3.2
			H122.3z M124.8,382.4c-0.1-0.3-0.2-0.6-0.3-0.8h-0.4l-0.3,0.8l-1.3,4.1h3.5L124.8,382.4z"/>
		<path fill="#FFFFFF" d="M143.8,380.6c1.1-0.1,2.3-0.1,3.7-0.1c3,0,4,1.3,4,5.3s-1.1,5.3-4,5.3c-1.4,0-2.6-0.1-3.7-0.1V380.6z
			 M145.1,389.8c0.7,0,1.5,0,2.4,0c2,0,2.6-1,2.6-4.1s-0.7-4.2-2.6-4.2c-0.9,0-1.7,0-2.4,0V389.8z"/>
		<path fill="#FFFFFF" d="M173,390.9l-0.9-3.2c-0.3-0.8-0.7-1.1-1.4-1.1c-1,0-1.7,0-2.3,0v4.3h-1.3v-10.3c1.1-0.1,1.9-0.1,3.6-0.1
			c2.4,0,3.3,0.7,3.3,3c0,1.7-0.5,2.5-1.9,2.7v0.1c0.5,0.1,1,0.6,1.3,1.5l1,3.3H173V390.9z M170.7,385.4c1.5,0,2-0.4,2-2
			c0-1.5-0.5-1.9-2-1.9c-0.9,0-1.6,0-2.2,0v3.9H170.7z"/>
		<path fill="#FFFFFF" d="M189.8,390.9v-10.3h1.3v10.3H189.8z"/>
		<path fill="#FFFFFF" d="M207.2,380.6c1.1-0.1,2.3-0.1,3.7-0.1c3,0,4,1.3,4,5.3s-1.1,5.3-4,5.3c-1.4,0-2.6-0.1-3.7-0.1V380.6z
			 M208.5,389.8c0.7,0,1.5,0,2.4,0c2,0,2.6-1,2.6-4.1s-0.7-4.2-2.6-4.2c-0.9,0-1.7,0-2.4,0V389.8z"/>
		<path fill="#FFFFFF" d="M247.1,387.6v-1h4.6v1H247.1z"/>
		<path fill="#FFFFFF" d="M289.3,385.6c1.5,0.1,2.1,1.1,2.1,2.8c0,2.1-0.9,2.7-3.3,2.7c-1.8,0-2.6,0-3.8-0.1v-10.3
			c1-0.1,1.8-0.1,3.4-0.1c2.5,0,3.4,0.6,3.4,2.7C291.1,384.6,290.6,385.4,289.3,385.6L289.3,385.6z M287.8,385c1.5,0,2-0.4,2-1.8
			s-0.6-1.7-2.2-1.7c-0.8,0-1.5,0-2,0v3.5H287.8z M285.6,389.9c0.6,0,1.4,0,2.3,0c1.6,0,2.2-0.3,2.2-1.8c0-1.6-0.6-2-2.3-2h-2.2
			V389.9z"/>
		<path fill="#FFFFFF" d="M314.8,385.7c0,4-1.1,5.4-4.1,5.4s-4.1-1.3-4.1-5.4c0-4,1.1-5.4,4.1-5.4
			C313.7,380.4,314.8,381.7,314.8,385.7z M308,385.7c0,3.2,0.7,4.2,2.7,4.2s2.7-1,2.7-4.2s-0.7-4.2-2.7-4.2S308,382.6,308,385.7z"/>
		<path fill="#FFFFFF" d="M336.4,389.8c-0.6,0.6-1.7,1.3-3.1,1.3c-2.3,0-3.3-1.7-3.3-5.4c0-4.1,1.1-5.3,4.3-5.3c1,0,2,0.1,2.9,0.3
			l-0.1,1c-0.9-0.1-1.9-0.1-2.7-0.1c-2.2,0-3,0.6-3,4.2c0,3,0.6,4.1,2.2,4.1c1.1,0,1.8-0.5,2.5-1v-4h1.3v6h-1L336.4,389.8z"/>
		<path fill="#FFFFFF" d="M361,385.7c0,4-1.1,5.4-4.1,5.4s-4.1-1.3-4.1-5.4c0-4,1.1-5.4,4.1-5.4C360,380.4,361,381.7,361,385.7z
			 M354.3,385.7c0,3.2,0.7,4.2,2.7,4.2s2.7-1,2.7-4.2s-0.7-4.2-2.7-4.2C354.9,381.5,354.3,382.6,354.3,385.7z"/>
		<path fill="#FFFFFF" d="M380.2,381.7v9.2h-1.3v-9.2h-3.3v-1.2h8v1.2H380.2z"/>
		<path fill="#FFFFFF" d="M399,387.6l-1,3.2h-1.4l3.3-10c0.1-0.2,0.3-0.4,0.5-0.4h1.4c0.2,0,0.4,0.1,0.5,0.4l3.3,10h-1.4l-1-3.2H399
			z M401.5,382.4c-0.1-0.3-0.2-0.6-0.3-0.8h-0.4l-0.3,0.8l-1.3,4.1h3.5L401.5,382.4z M400.1,379.4l2.6-2.2l0.7,1l-2.9,1.8
			L400.1,379.4z"/>
	</g>
</g>
</svg>
